Coordinates
version=1
nRows=4
nColumns=60
inDegrees=yes

Units are S.I. units (second, meters, Newtons, ...)
If the header above contains a line with 'inDegrees', this indicates whether rotational values are in degrees (yes) or radians (no).

endheader
time	pelvis_tilt	pelvis_list	pelvis_rotation	pelvis_tx	pelvis_ty	pelvis_tz	hip_flexion_r	hip_adduction_r	hip_rotation_r	knee_angle_r_beta	knee_angle_r	ankle_angle_r	subtalar_angle_r	mtp_angle_r	hip_flexion_l	hip_adduction_l	hip_rotation_l	knee_angle_l_beta	knee_angle_l	ankle_angle_l	subtalar_angle_l	mtp_angle_l	L5_S1_Flex_Ext	L5_S1_Lat_Bending	L5_S1_axial_rotation	L4_L5_Flex_Ext	L4_L5_Lat_Bending	L4_L5_axial_rotation	L3_L4_Flex_Ext	L3_L4_Lat_Bending	L3_L4_axial_rotation	L2_L3_Flex_Ext	L2_L3_Lat_Bending	L2_L3_axial_rotation	L1_L2_Flex_Ext	L1_L2_Lat_Bending	L1_L2_axial_rotation	L1_T12_Flex_Ext	L1_T12_Lat_Bending	L1_T12_axial_rotation	Abs_r3	Abs_r2	Abs_r1	Abs_t1	Abs_t2	arm_flex_r	arm_add_r	arm_rot_r	elbow_flex_r	pro_sup_r	wrist_flex_r	wrist_dev_r	arm_flex_l	arm_add_l	arm_rot_l	elbow_flex_l	pro_sup_l	wrist_flex_l	wrist_dev_l
      8.62000000	      1.15619932	      5.81658438	     92.71414645	      0.40266002	      0.93824071	      0.29575159	      4.46131865	     -3.71748248	      0.56005221	      0.25336332	    -14.51664893	      6.56430646	      0.00000000	      0.00000000	      5.11839935	     -6.78755327	      0.93209264	      0.22853973	    -13.09436177	      7.12438558	      0.00000000	      0.00000000	     -6.62098833	      0.24531941	     -0.23216132	    -12.29583744	      0.32627481	     -0.24667141	    -10.87762173	      0.59646960	     -0.24667141	     -7.56712757	      0.59646960	     -0.20314116	     -6.14824977	      0.50025533	     -0.18863108	     -3.78323273	      0.37999976	     -0.17412099	    -47.29305757	      2.77510218	     -1.29121164	      0.00000000	      0.00000000	     43.65967192	    -24.66187681	     10.45710804	     92.84347825	     76.37697730	    -26.00864821	     59.54727906	     43.34222063	    -24.03643070	     11.92027764	     91.15469300	     72.66878640	    -27.00291629	     55.77298534
      8.63000000	      1.12872712	      6.05857349	     92.69254796	      0.40249774	      0.93853249	      0.29407581	      4.04967063	     -3.74052269	      0.57131839	      0.25225046	    -14.45288670	      6.63243924	      0.00000000	      0.00000000	      4.67921670	     -6.77334697	      0.84311384	      0.22672664	    -12.99047961	      7.25862189	      0.00000000	      0.00000000	     -6.61716534	      0.23110844	     -0.24874710	    -12.28873775	      0.30737423	     -0.26429379	    -10.87134094	      0.56191707	     -0.26429379	     -7.56275827	      0.56191707	     -0.21765371	     -6.14469973	      0.47127634	     -0.20210702	     -3.78104827	      0.35798698	     -0.18656032	    -47.26575030	      2.61434494	     -1.38345674	      0.00000000	      0.00000000	     41.73863302	    -24.60249519	      9.77331112	     94.09025740	     76.82581623	    -25.89482870	     60.01482553	     41.18731593	    -23.80367097	     10.77093403	     92.74926458	     73.88022039	    -26.89952559	     56.78439920
      8.64000000	      1.09457793	      6.41461204	     92.68432749	      0.40223027	      0.93899351	      0.29246005	      3.55948620	     -3.78418521	      0.49158962	      0.25300089	    -14.49588349	      6.74342325	      0.00000000	      0.00000000	      4.18001299	     -6.75106029	      0.74854889	      0.22699731	    -13.00598766	      7.41127491	      0.00000000	      0.00000000	     -6.60281441	      0.22594253	     -0.25537113	    -12.26208663	      0.30050356	     -0.27133183	    -10.84776379	      0.54935666	     -0.27133183	     -7.54635658	      0.54935666	     -0.22344974	     -6.13137346	      0.46074200	     -0.20748904	     -3.77284815	      0.34998497	     -0.19152835	    -47.16324302	      2.55590704	     -1.42029762	      0.00000000	      0.00000000	     40.00815023	    -24.70752190	      9.54206006	     94.73892600	     76.97970259	    -25.89774149	     59.75139030	     39.30631320	    -23.74369615	     10.37103713	     93.50572726	     74.27298647	    -26.97487937	     56.61870293
      8.65000000	      1.07070604	      6.68155997	     92.68142315	      0.40200284	      0.93933459	      0.29094700	      3.15552705	     -3.80409154	      0.39137771	      0.25241769	    -14.46246815	      6.87335795	      0.00000000	      0.00000000	      3.72808801	     -6.73113786	      0.62410692	      0.22541615	    -12.91539398	      7.58778927	      0.00000000	      0.00000000	     -6.59043053	      0.21473199	     -0.26714257	    -12.23908853	      0.28559355	     -0.28383898	    -10.82741831	      0.52209936	     -0.28383898	     -7.53220305	      0.52209936	     -0.23374975	     -6.11987379	      0.43788148	     -0.21705334	     -3.76577200	      0.33261985	     -0.20035693	    -47.07478621	      2.42909122	     -1.48576682	      0.00000000	      0.00000000	     38.26591644	    -24.80948139	      9.22335062	     95.53506148	     77.14807405	    -25.91299106	     59.75384508	     37.46493099	    -23.68087602	      9.90251134	     94.43344923	     74.78733931	    -27.03995663	     56.82493636
